<svg version="1.1" xmlns="http://www.w3.org/2000/svg" xmlns:xlink="http://www.w3.org/1999/xlink" xmlns:svg="http://www.w3.org/2000/svg" xmlns:rdf="http://www.w3.org/1999/02/22-rdf-syntax-ns#" xmlns:cc="http://creativecommons.org/ns#" xmlns:dc="http://purl.org/dc/elements/1.1/" width="512" height="512" viewBox="128 128 512 512">
<path stroke="none" fill="black" fill-rule="evenodd" d="M378.04,557.85C376.64,557.77 374.15,557.51 372.50,557.28C370.85,557.04 361.85,555.08 352.50,552.92C343.15,550.76 333.22,548.33 330.44,547.52C327.65,546.71 323.83,545.01 321.94,543.75C319.59,542.17 317.24,538.92 314.50,533.46C312.30,529.07 309.43,523.01 308.12,519.99C306.10,515.33 301.43,510.21 277.10,486.00C256.12,465.13 247.65,456.03 245.48,452.00C242.50,446.50 242.50,446.50 242.00,420.50C241.72,406.20 241.72,384.74 242.00,372.82C242.46,352.86 242.66,350.92 244.58,348.36C245.72,346.83 249.10,344.33 252.08,342.81C255.06,341.29 265.38,336.70 275.00,332.61C284.62,328.52 296.34,323.44 301.04,321.33C305.74,319.23 310.57,316.79 311.76,315.93C312.97,315.05 320.40,301.35 328.50,285.06C336.51,268.95 345.93,250.54 349.44,244.14C352.94,237.74 357.85,228.68 360.35,224.00C362.85,219.33 366.06,214.04 367.49,212.25C368.92,210.46 370.87,209.00 371.82,209.00C372.77,209.00 374.53,209.68 375.71,210.51C376.90,211.34 381.64,217.30 386.24,223.76C390.85,230.22 398.84,241.57 404.01,249.00C409.18,256.43 421.00,273.18 430.28,286.24C439.57,299.30 448.29,310.87 449.66,311.95C451.04,313.03 462.14,317.82 474.33,322.58C486.53,327.34 498.97,332.34 502.00,333.68C505.02,335.02 508.55,337.10 509.84,338.31C511.13,339.51 512.62,341.31 513.16,342.30C513.73,343.36 514.37,366.03 514.71,397.43C515.16,437.84 515.00,451.93 514.07,455.63C513.40,458.31 511.11,462.75 508.99,465.51C506.87,468.26 501.62,473.52 497.32,477.19C493.02,480.87 485.00,487.57 479.50,492.09C474.00,496.61 467.53,502.15 465.13,504.40C462.24,507.11 459.45,511.32 456.89,516.84C454.76,521.42 452.13,526.41 451.06,527.92C449.98,529.43 446.45,532.08 443.22,533.80C439.99,535.52 431.75,539.23 424.92,542.04C418.09,544.84 408.00,548.89 402.50,551.03C397.00,553.17 389.82,555.62 386.54,556.46C383.26,557.31 379.44,557.93 378.04,557.85zM380.45,531.97C383.76,531.99 389.86,530.48 398.95,527.40C406.40,524.87 416.55,521.22 421.50,519.28C426.45,517.35 431.47,514.88 432.66,513.79C433.84,512.71 436.50,508.51 438.55,504.46C440.61,500.41 444.98,494.07 448.26,490.37C451.54,486.67 457.45,480.92 461.39,477.57C465.33,474.23 474.30,467.05 481.32,461.60C488.35,456.16 495.65,449.89 497.55,447.67C499.45,445.46 501.00,442.82 501.00,441.82C501.00,440.82 500.51,440.00 499.91,440.00C499.31,440.00 494.92,441.31 490.16,442.91C485.40,444.51 478.35,446.74 474.50,447.87C470.65,448.99 464.69,451.62 461.25,453.71C457.82,455.79 450.91,461.29 445.90,465.91C440.89,470.54 430.70,481.02 423.24,489.21C415.79,497.40 408.93,504.50 407.99,505.00C407.06,505.51 403.21,506.41 399.46,507.01C395.70,507.61 386.29,508.74 378.56,509.53C370.83,510.32 359.77,510.97 354.00,510.97C348.23,510.98 340.57,510.53 337.00,509.97C333.43,509.42 329.20,508.69 327.60,508.37C324.78,507.79 324.72,507.86 325.37,511.09C325.73,512.91 327.00,515.43 328.18,516.69C329.36,517.95 332.84,519.93 335.91,521.09C338.99,522.24 349.15,525.16 358.50,527.56C367.85,529.97 377.73,531.95 380.45,531.97zM384.41,496.00C385.67,496.00 390.15,495.71 394.36,495.35C402.03,494.70 402.03,494.70 412.54,482.86C418.33,476.34 428.33,466.28 434.76,460.50C442.61,453.44 448.93,448.71 453.98,446.12C458.12,443.99 465.77,440.86 471.00,439.15C476.23,437.44 484.74,434.92 489.93,433.55C495.11,432.18 499.65,430.56 500.02,429.96C500.39,429.37 500.99,422.49 501.34,414.69C501.70,406.88 501.99,388.72 502.00,374.32C502.00,348.15 502.00,348.15 499.59,346.25C498.27,345.21 493.21,342.85 488.34,341.00C483.48,339.15 471.63,334.55 462.00,330.77C452.38,327.00 443.53,323.27 442.35,322.49C441.16,321.72 436.02,315.10 430.91,307.79C425.81,300.48 415.80,285.95 408.68,275.50C401.55,265.05 392.12,251.44 387.72,245.25C383.32,239.06 379.28,234.00 378.74,234.00C378.20,234.00 378.03,235.43 378.34,237.25C378.65,239.04 379.48,247.70 380.17,256.50C380.96,266.61 381.43,292.02 381.43,325.50C381.43,354.65 381.22,404.38 380.97,436.00C380.71,467.62 380.86,494.06 381.31,494.75C381.75,495.44 383.15,496.00 384.41,496.00zM350.11,492.92C352.73,493.00 352.73,493.00 353.30,446.75C353.61,421.31 354.57,385.20 355.43,366.50C356.29,347.80 357.68,324.85 358.52,315.50C359.37,306.15 360.95,291.31 362.03,282.51C363.11,273.72 364.00,264.74 364.00,262.56C364.00,259.99 363.66,258.94 363.02,259.58C362.49,260.11 359.54,269.73 356.46,280.95C353.39,292.17 349.52,305.66 347.85,310.92C346.19,316.19 341.33,331.30 337.05,344.50C332.78,357.70 326.41,377.44 322.90,388.37C318.05,403.50 316.07,408.41 314.61,408.95C313.00,409.55 314.21,410.88 322.09,417.16C327.27,421.28 333.87,427.25 336.76,430.42C339.66,433.60 343.13,438.07 344.48,440.37C345.82,442.67 347.66,447.41 348.56,450.91C349.64,455.15 349.88,457.95 349.27,459.31C348.42,461.22 348.18,461.11 345.43,457.52C343.82,455.42 339.61,450.27 336.08,446.10C332.55,441.92 325.56,434.45 320.55,429.50C315.54,424.55 309.94,419.66 308.11,418.63C304.79,416.76 304.79,416.76 305.52,419.13C305.92,420.43 309.04,427.35 312.45,434.50C315.86,441.65 320.75,450.85 323.31,454.94C325.86,459.03 327.79,462.55 327.58,462.75C327.38,462.96 321.20,459.11 313.85,454.20C306.51,449.30 295.90,442.30 290.27,438.65C282.75,433.77 279.87,431.32 279.38,429.39C279.02,427.95 279.01,423.36 279.37,419.19C279.77,414.36 281.49,407.24 284.11,399.56C286.36,392.93 290.91,380.75 294.21,372.50C297.52,364.25 302.60,351.54 305.51,344.25C308.48,336.79 310.29,331.01 309.64,331.02C309.01,331.03 306.48,331.98 304.00,333.12C301.52,334.26 295.00,337.10 289.50,339.43C284.00,341.76 274.17,345.85 267.65,348.52C260.12,351.60 255.27,354.18 254.33,355.61C253.09,357.51 252.91,363.31 253.18,392.72C253.50,427.58 253.50,427.58 255.96,430.54C257.32,432.17 262.23,436.88 266.89,441.00C271.54,445.12 283.03,455.71 292.42,464.52C301.82,473.34 311.21,481.60 313.30,482.89C315.40,484.18 323.95,486.94 332.30,489.03C340.66,491.13 348.68,492.87 350.11,492.92zM385.47,471.00C385.28,471.00 384.92,470.66 384.67,470.25C384.42,469.84 384.61,459.60 385.09,447.50C385.56,435.40 386.58,422.12 387.35,418.00C388.12,413.88 389.44,408.93 390.27,407.00C391.10,405.07 393.74,400.75 396.14,397.39C398.54,394.02 402.52,388.91 405.00,386.02C407.48,383.13 413.19,377.52 417.71,373.55C422.22,369.58 429.01,364.25 432.79,361.71C436.57,359.17 443.15,355.22 447.41,352.92C452.46,350.20 455.49,349.09 456.13,349.73C456.77,350.37 455.72,354.14 453.11,360.60C450.91,366.05 446.32,377.70 442.91,386.50C439.50,395.30 435.24,405.43 433.46,409.00C431.68,412.57 427.79,418.88 424.81,423.00C421.84,427.12 414.93,435.92 409.45,442.55C403.98,449.18 396.42,458.29 392.66,462.80C388.90,467.31 385.66,471.00 385.47,471.00zM390.86,447.42C391.30,446.91 395.26,441.32 399.66,435.00C404.05,428.68 410.75,419.00 414.53,413.50C418.32,408.00 424.70,398.61 428.71,392.64C432.72,386.66 436.00,381.38 436.00,380.89C436.00,380.40 435.71,380.00 435.36,380.00C435.01,380.00 431.84,382.53 428.32,385.62C424.80,388.71 419.08,394.89 415.61,399.37C412.14,403.84 405.43,413.41 400.71,420.63C395.41,428.74 391.50,435.93 390.48,439.43C389.57,442.55 389.11,445.83 389.45,446.72C389.80,447.65 390.41,447.94 390.86,447.42zM445.38,433.00C445.17,433.00 445.00,432.47 445.00,431.83C445.00,431.19 447.01,424.50 449.47,416.98C451.93,409.45 454.65,399.07 455.51,393.90C456.37,388.73 457.36,376.95 457.69,367.72C458.11,356.40 458.66,351.05 459.39,351.30C459.98,351.49 461.24,354.21 462.19,357.32C463.14,360.44 464.64,367.83 465.51,373.75C466.39,379.66 467.38,388.82 467.70,394.11C468.15,401.45 467.94,404.41 466.84,406.61C466.04,408.20 460.97,414.79 455.57,421.25C450.17,427.71 445.58,433.00 445.38,433.00zM413.76,321.57C413.62,321.72 411.76,318.94 409.63,315.41C407.51,311.87 404.71,306.39 403.41,303.24C402.11,300.08 401.06,296.60 401.07,295.50C401.09,294.40 403.39,297.99 406.18,303.48C408.97,308.97 411.88,315.23 412.64,317.39C413.40,319.55 413.90,321.43 413.76,321.57z"/>
</svg>